<svg xmlns="http://www.w3.org/2000/svg" viewBox="0 0 128 128" role="img" aria-labelledby="title desc">
  <title id="title">Teodors Vulkaneventyr</title>
  <desc id="desc">Et dyprødt hjerte foran en rykende vulkan med glødende lava og en mørk sol.</desc>
  <defs>
    <linearGradient id="sky" x1="0" y1="0" x2="0" y2="1">
      <stop stop-color="#5d9291"/>
      <stop offset="1" stop-color="#163e49"/>
    </linearGradient>
    <linearGradient id="mountain" x1="0" y1="0" x2="1" y2="1">
      <stop stop-color="#5a3a3c"/>
      <stop offset="1" stop-color="#2b1a1e"/>
    </linearGradient>
    <linearGradient id="lava" x1="0" y1="0" x2="0" y2="1">
      <stop stop-color="#ffd75c"/>
      <stop offset=".5" stop-color="#ff6a2a"/>
      <stop offset="1" stop-color="#8a1a08"/>
    </linearGradient>
    <linearGradient id="heart" x1="0" y1="0" x2="0" y2="1">
      <stop stop-color="#ff746d"/>
      <stop offset=".55" stop-color="#ee4050"/>
      <stop offset="1" stop-color="#bd1832"/>
    </linearGradient>
    <filter id="shadow" x="-30%" y="-30%" width="160%" height="170%">
      <feDropShadow dx="0" dy="3" stdDeviation="2.5" flood-color="#102d35" flood-opacity=".55"/>
    </filter>
  </defs>
  <rect width="128" height="128" rx="25" fill="url(#sky)"/>
  <circle cx="101" cy="30" r="15" fill="#ffe79e"/>
  <path d="M-14 122 64-7l78 129Z" fill="url(#mountain)"/>
  <path d="m64-7 8 39 70 90H64Z" fill="#1f1214" opacity=".54"/>
  <ellipse cx="64" cy="2" rx="14" ry="6" fill="url(#lava)"/>
  <path d="M58 6 54 44 62 44 64 18 68 44 76 44 70 6Z" fill="url(#lava)" opacity=".9"/>
  <path d="M-10 113 28 83l15 16 20-16 18 16 22-25 35 39v15H-10Z" fill="#275f60" opacity=".82"/>
  <path d="M64 114C47 102 28 91 28 68c0-13 9-22 21-22 7 0 12 4 15 10 3-6 8-10 15-10 12 0 21 9 21 22 0 23-19 34-36 46Z" fill="url(#heart)" stroke="#fff5df" stroke-width="3.5" filter="url(#shadow)"/>
  <path d="M40 63c4-6 10-8 16-4" fill="none" stroke="#fff5e0" stroke-linecap="round" stroke-width="4" opacity=".78"/>
</svg>
